# xmcd
#
# Track frame offsets:
#	150
#	12465
#	32317
#	52512
#	66887
#	84350
#	100705
#	118690
#	139490
#	154727
#	172480
#	186927
#	202832
#	218662
#	232602
#	244670
#	280320
#	300565
#
# Disc length: 4138 seconds
#
# Revision: 2
# Processed by: cddbd v1.4PL0 Copyright (c) Steve Scherf et al.
# Submitted via: audiograbber 1.80.04
#
DISCID=e9102812
DTITLE=New Grass Revival - Best Of
DYEAR=1994
DGENRE=Country
TTITLE0=Love Someone Like Me
TTITLE1=Sweet Release
TTITLE2=In The Middle Of The Night
TTITLE3=Saw You Runnin'
TTITLE4=Revival
TTITLE5=Hold To A Dream
TTITLE6=Can't Stop Now
TTITLE7=Metric Lips
TTITLE8=Unconditional Love
TTITLE9=Friday Night In America
TTITLE10=You Plant Your Fields
TTITLE11=Let's Make A Baby King
TTITLE12=Do What You Gotta Do
TTITLE13=Let Me Be Your Man
TTITLE14=Callin' Baton Rouge
TTITLE15=Big Foot
TTITLE16=Angel Eyes
TTITLE17=I'm Down
EXTD=
EXTT0=
EXTT1=
EXTT2=
EXTT3=
EXTT4=
EXTT5=
EXTT6=
EXTT7=
EXTT8=
EXTT9=
EXTT10=
EXTT11=
EXTT12=
EXTT13=
EXTT14=
EXTT15=
EXTT16=
EXTT17=
PLAYORDER=
